<?xml version="1.0" encoding="UTF-8"?>
<svg version="1.1" xmlns="http://www.w3.org/2000/svg" width="1000" height="244">
<path d="M0 0 C15.13042586 0 15.13042586 0 22 1.6875 C23.14408325 1.95759888 23.14408325 1.95759888 24.3112793 2.2331543 C39.32608254 5.92340673 53.29229166 12.26750449 64.9765625 22.49609375 C66.9811115 24.29826184 66.9811115 24.29826184 70 24 C70.928125 23.175 71.85625 22.35 72.8125 21.5 C91.25690371 5.27045222 119.7187912 -1.49627014 143.87060547 -0.1640625 C164.32490469 1.41187067 184.81650597 8.90196392 200.03515625 22.9453125 C202.02073546 24.29470737 202.02073546 24.29470737 204.51953125 23.37109375 C206.88050501 22.06605156 208.62744262 20.73530164 210.625 18.9375 C232.24210139 1.73718178 262.03390892 -2.51274816 288.71044922 0.28417969 C308.87358179 3.41200187 326.46319845 14.0708461 341 28 C341.82242187 28.74765625 342.64484375 29.4953125 343.4921875 30.265625 C362.14593707 47.81525856 372.93805641 73.23082828 374.17789078 98.64664841 C374.24357577 102.52107066 374.24832224 106.39245177 374.22705078 110.26708984 C374.2264849 111.73711642 374.22680666 113.20714355 374.22793579 114.6771698 C374.22850342 118.62048097 374.21684607 122.56366741 374.20278788 126.5069499 C374.19018082 130.64554663 374.18910223 134.78414704 374.18673706 138.92276001 C374.18055133 146.73862496 374.16418038 154.55443314 374.14403808 162.37027323 C374.12158793 171.2773128 374.11066285 180.18435525 374.10064721 189.09141612 C374.07981117 207.39430945 374.04469249 225.69715014 374 244 C372.07490057 244.01703472 370.14975766 244.02920325 368.22460938 244.03930664 C367.15255249 244.04660294 366.08049561 244.05389923 364.97595215 244.06141663 C347.59600549 243.70273556 334.25404323 231.25404323 322.71484375 219.71484375 C311.86467794 208.19568891 305.9749882 194.82532437 305.81054688 179.04272461 C305.80225357 178.37332352 305.79396027 177.70392242 305.78541565 177.01423645 C305.7680979 175.56730872 305.752909 174.12035423 305.73963928 172.67338371 C305.71836906 170.36092838 305.69135451 168.04859954 305.66296387 165.73622131 C305.60348059 160.80336562 305.55146394 155.87044484 305.5 150.9375 C305.293061 126.27872446 305.293061 126.27872446 304.65625 101.62890625 C304.62537292 100.42704933 304.62537292 100.42704933 304.59387207 99.20091248 C304.1340129 88.95462249 298.85345762 82.59801248 291.625 75.75 C283.28373383 70.18915589 276.04298671 68.9121052 266 70 C257.00472046 71.91577886 249.7161389 77.72140849 244.47816277 85.16169453 C239.62999703 93.07545087 239.14184013 99.91281669 239.22705078 109.01831055 C239.21886316 110.49776309 239.20805111 111.97720305 239.19483948 113.45661926 C239.16659839 117.43957635 239.17469016 121.4216999 239.18970728 125.40469718 C239.19913522 129.57943914 239.17459271 133.75398419 239.15377808 137.92866516 C239.11953495 145.81905326 239.11548585 153.70915115 239.12250316 161.59959871 C239.13023013 172.27246222 239.09087186 182.94514794 239.05426407 193.61793423 C238.99789175 210.41206848 239.00404636 227.20558279 239 244 C216.56 244 194.12 244 171 244 C170.95101562 233.625625 170.90203125 223.25125 170.8515625 212.5625 C170.81617789 205.99087707 170.78029924 199.41926299 170.7421875 192.84765625 C170.68178456 182.41652439 170.62340099 171.98540917 170.578125 161.55419922 C170.54514017 153.95691091 170.50527322 146.35969489 170.45720994 138.76248646 C170.43200939 134.74141072 170.41020922 130.72038253 170.39665604 126.69924927 C170.38377701 122.91043839 170.36166029 119.12179113 170.33261681 115.33307076 C170.32358651 113.94642474 170.31786148 112.55975241 170.31578636 111.17307854 C170.29282232 98.15254443 168.71127261 90.06807259 160 80 C157.50596635 77.62356322 154.95571145 75.76096985 152 74 C151.34773437 73.58878906 150.69546875 73.17757812 150.0234375 72.75390625 C142.42370014 68.64093978 133.33043461 68.73995038 125.05859375 70.6953125 C115.00180516 74.34953492 109.92268991 80.76424123 105 90 C104.64972055 90.58145153 104.29944111 91.16290306 103.93854713 91.76197433 C102.71876783 94.6706161 102.73734826 97.02191333 102.7215271 100.17559814 C102.71036362 101.44321991 102.69920013 102.71084167 102.68769836 104.01687622 C102.68533348 105.41912812 102.68315781 106.82138035 102.68115234 108.22363281 C102.67185298 109.70204212 102.6616843 111.18044617 102.65071106 112.65884399 C102.62339782 116.67086473 102.60825775 120.68285033 102.59528303 124.69493961 C102.57965828 128.88836258 102.55286597 133.08171374 102.5272522 137.27508545 C102.48045279 145.21518511 102.44371431 153.15529826 102.41057932 161.09546542 C102.36522163 171.82546999 102.30434493 182.55538573 102.24433136 193.28531647 C102.15019051 210.19016647 102.07680397 227.09504176 102 244 C79.56 244 57.12 244 34 244 C33.97421875 233.44386719 33.9484375 222.88773438 33.921875 212.01171875 C33.8967033 205.31703883 33.87053024 198.62238753 33.83984375 191.92773438 C33.79134193 181.30591034 33.74688326 170.68418149 33.72900391 160.06225586 C33.71596192 152.32535299 33.68893256 144.5886443 33.64538693 136.85185081 C33.62282914 132.75851917 33.60708589 128.66542651 33.60811615 124.57202721 C33.60886615 120.71166296 33.5907806 116.85182585 33.55883217 112.99159813 C33.5503797 111.58203031 33.5485513 110.17240305 33.55419731 108.7628212 C33.59829663 96.05037297 31.49420437 86.45003888 22.48828125 77.1640625 C15.48900225 71.07677747 9.19166415 69.83833283 0 68 C0 45.56 0 23.12 0 0 Z " fill="#EF514F" transform="translate(0,0)"/>
<path d="M0 0 C4.50056345 3.44614573 8.64406262 7.1744153 12.734375 11.09375 C13.55679688 11.84140625 14.37921875 12.5890625 15.2265625 13.359375 C33.88031207 30.90900856 44.67243141 56.32457828 45.91226578 81.74039841 C45.97795077 85.61482066 45.98269724 89.48620177 45.96142578 93.36083984 C45.9608599 94.83086642 45.96118166 96.30089355 45.96231079 97.7709198 C45.96287842 101.71423097 45.95122107 105.65741741 45.93716288 109.6006999 C45.92455582 113.73929663 45.92347723 117.87789704 45.92111206 122.01651001 C45.91492633 129.83237496 45.89855538 137.64818314 45.87841308 145.46402323 C45.85596293 154.3710628 45.84503785 163.27810525 45.83502221 172.18516612 C45.81418617 190.48805945 45.77906749 208.79090014 45.734375 227.09375 C43.80927557 227.11078472 41.88413266 227.12295325 39.95898438 227.13305664 C38.88692749 227.14035294 37.81487061 227.14764923 36.71032715 227.15516663 C19.33038049 226.79648556 5.98841823 214.34779323 -5.55078125 202.80859375 C-16.40094706 191.28943891 -22.2906368 177.91907437 -22.45507812 162.13647461 C-22.46751808 161.13237297 -22.46751808 161.13237297 -22.48020935 160.10798645 C-22.4975271 158.66105872 -22.512716 157.21410423 -22.52598572 155.76713371 C-22.54725594 153.45467838 -22.57427049 151.14234954 -22.60266113 148.82997131 C-22.66214441 143.89711562 -22.71416106 138.96419484 -22.765625 134.03125 C-22.972564 109.37247446 -22.972564 109.37247446 -23.609375 84.72265625 C-23.62995972 83.9214183 -23.65054443 83.12018036 -23.67175293 82.29466248 C-24.1316121 72.04837249 -29.41216738 65.69176248 -36.640625 58.84375 C-44.98189117 53.28290589 -52.22263829 52.0058552 -62.265625 53.09375 C-71.73146156 55.10974622 -79.15475505 61.38219606 -84.4140625 69.34765625 C-85.6431107 71.47215385 -86.83791112 73.61704691 -87.98828125 75.78515625 C-88.40980469 76.54699219 -88.83132812 77.30882813 -89.265625 78.09375 C-89.595625 78.09375 -89.925625 78.09375 -90.265625 78.09375 C-90.44738281 76.87558594 -90.62914062 75.65742187 -90.81640625 74.40234375 C-91.06982757 72.77857008 -91.3237611 71.15487629 -91.578125 69.53125 C-91.75504883 68.33145508 -91.75504883 68.33145508 -91.93554688 67.10742188 C-92.75044399 61.98819639 -94.04178468 57.77675766 -96.265625 53.09375 C-96.69875 52.041875 -97.131875 50.99 -97.578125 49.90625 C-104.27315283 34.48007763 -113.27976917 21.89055448 -125.265625 10.09375 C-122.77754695 2.62951586 -112.20652785 -2.13039617 -105.48852539 -5.49951172 C-71.29032325 -21.91104638 -31.66306111 -22.24971862 0 0 Z " fill="#EF5050" transform="translate(328.265625,16.90625)"/>
<path d="M0 0 C2.70897262 2.49420722 5.12398408 5.12426264 7.46875 7.9609375 C8.60823155 9.32569587 9.79503059 10.65219845 11.0234375 11.9375 C20.25979551 21.65318996 29.25353148 35.11326213 32.79296875 48.18359375 C33.46398964 50.62689924 34.13556843 52.92124916 35.14297676 55.24835777 C38.88509758 65.28000691 38.45297126 76.70716415 38.39501953 87.26318359 C38.39445365 88.73321017 38.39477541 90.2032373 38.39590454 91.67326355 C38.39647217 95.61657472 38.38481482 99.55976116 38.37075663 103.50304365 C38.35814957 107.64164038 38.35707098 111.78024079 38.35470581 115.91885376 C38.34852008 123.73471871 38.33214913 131.55052689 38.31200683 139.36636698 C38.28534878 149.94287881 38.27465167 160.51940644 38.2630024 171.09594345 C38.24426604 187.72936931 38.20440116 204.36267543 38.16796875 220.99609375 C15.72796875 220.99609375 -6.71203125 220.99609375 -29.83203125 220.99609375 C-29.86941406 210.72613281 -29.90679687 200.45617187 -29.9453125 189.875 C-29.97561077 183.34438787 -30.00665126 176.81379303 -30.04101562 170.28320312 C-30.09534817 159.93190125 -30.14676725 149.5806473 -30.1784668 139.22924805 C-30.20157505 131.68788128 -30.23511376 124.14664203 -30.28073281 116.60537666 C-30.30449373 112.61920364 -30.32333383 108.63315554 -30.32964516 104.64691353 C-29.97425176 78.29632653 -29.97425176 78.29632653 -36.11801624 52.89365482 C-36.84994397 50.94848904 -37.44400003 48.99249711 -38.01953125 46.99609375 C-45.76480135 23.5575277 -62.57060063 -0.58605564 -84.83203125 -12.00390625 C-88.12613672 -13.45493493 -91.44743237 -14.77968963 -94.83203125 -16.00390625 C-94.83203125 -16.66390625 -94.83203125 -17.32390625 -94.83203125 -18.00390625 C-92.50043821 -18.65663086 -90.16705329 -19.30115827 -87.83203125 -19.94140625 C-87.18363281 -20.12380859 -86.53523438 -20.30621094 -85.8671875 -20.49414062 C-56.08880827 -28.60211517 -23.35665236 -19.54643174 0 0 Z " fill="#EF524E" transform="translate(200.83203125,23.00390625)"/>
<path d="M0 0 C2.5 1.9375 2.5 1.9375 3.5 2.9375 C3.83 1.2875 4.16 -0.3625 4.5 -2.0625 C12.75 -2.0625 21 -2.0625 29.5 -2.0625 C29.59066559 8.30859687 29.66392542 18.67942697 29.70724869 29.05083179 C29.72805031 33.86761612 29.75623095 38.6841133 29.80175781 43.50073242 C29.84548214 48.15621925 29.86919284 52.81143132 29.87950897 57.46710777 C29.88685292 59.23598233 29.90119299 61.00484326 29.92292023 62.77359962 C30.07576637 75.74185544 29.26660883 86.50828697 20.53515625 96.87109375 C11.17084949 106.37919024 -1.29935281 110.94150654 -14.5625 111.1875 C-27.3145374 111.03156476 -40.33798844 107.09951156 -49.5 97.9375 C-52.06267293 94.74440953 -54.57820004 91.56006223 -56.5 87.9375 C-55.29781676 84.33095028 -54.60945158 84.15944667 -51.3515625 82.45703125 C-50.51109375 82.01552734 -49.670625 81.57402344 -48.8046875 81.11914062 C-47.92039062 80.66732422 -47.03609375 80.21550781 -46.125 79.75 C-45.2484375 79.28658203 -44.371875 78.82316406 -43.46875 78.34570312 C-36.903316 74.9375 -36.903316 74.9375 -33.5 74.9375 C-32.778125 76.01 -32.05625 77.0825 -31.3125 78.1875 C-27.98276107 83.09762248 -23.96285499 85.0456457 -18.30078125 86.50390625 C-12.55933068 87.45580469 -7.65799339 86.65644225 -2.5 83.9375 C1.58868233 80.44508384 2.76043415 77.76664077 3.3125 72.5625 C3.39657626 71.02185937 3.4664659 69.48006858 3.5 67.9375 C2.654375 68.55625 1.80875 69.175 0.9375 69.8125 C-6.48976175 75.24708177 -16.72635905 74.81927296 -25.5 73.9375 C-35.36786839 71.81951849 -43.4765077 66.49677154 -49.1796875 58.16015625 C-55.77351515 47.05989609 -56.25861149 34.04273702 -53.83984375 21.51953125 C-50.90015996 12.49686541 -45.10412319 5.10839175 -37.015625 0.15625 C-26.16092116 -5.10255062 -10.58131375 -6.92824114 0 0 Z M-25.75 24.3125 C-29.22610662 29.52665993 -29.97039609 33.2257298 -29.15625 39.43359375 C-28.04338828 43.67969115 -25.96790462 46.30014397 -22.5 48.9375 C-16.91135013 52.11577798 -11.90326187 52.37205536 -5.73046875 50.79296875 C-1.04347068 48.99532851 0.90968861 45.94102937 3.375 41.75 C4.83038782 36.8178524 4.93638505 32.8894573 3.5 27.9375 C1.37010971 24.28242014 -1.19980801 21.76817822 -4.75 19.5 C-12.78142881 17.85720774 -19.83844795 18.07252839 -25.75 24.3125 Z " fill="#111111" transform="translate(731.5,85.0625)"/>
<path d="M0 0 C2.875 2.5 2.875 2.5 5 5 C5.598125 5.598125 6.19625 6.19625 6.8125 6.8125 C7.204375 7.204375 7.59625 7.59625 8 8 C8.66 7.0925 9.32 6.185 10 5.25 C13.99423468 0.45011003 19.78872579 -2.39402203 26 -3 C34.05150534 -3.63273126 40.53023286 -2.29135566 47.3125 2.1875 C53.06847514 8.21119491 55.13078397 14.74683134 55.11352539 22.96191406 C55.11341209 24.76332855 55.11341209 24.76332855 55.11329651 26.60113525 C55.10813522 27.89291687 55.10297394 29.18469849 55.09765625 30.515625 C55.09579017 31.85512235 55.09436716 33.19462038 55.09336853 34.53411865 C55.08955835 38.05222472 55.07974091 41.57028921 55.06866455 45.08837891 C55.05841817 48.68130939 55.053864 52.27424661 55.04882812 55.8671875 C55.03811725 62.91147692 55.02053262 69.95573137 55 77 C46.75 77 38.5 77 30 77 C29.95101562 73.52082031 29.90203125 70.04164063 29.8515625 66.45703125 C29.7975407 63.08451057 29.74023783 59.71206049 29.68261719 56.33959961 C29.64435284 53.99720527 29.60949554 51.65475267 29.578125 49.31225586 C29.53241975 45.943636 29.47443339 42.57541627 29.4140625 39.20703125 C29.40251129 38.16102249 29.39096008 37.11501373 29.37905884 36.03730774 C29.35918915 35.05666855 29.33931946 34.07602936 29.31884766 33.06567383 C29.30552399 32.20629715 29.29220032 31.34692047 29.2784729 30.46150208 C28.95916418 27.63904042 28.28163156 25.5339014 27 23 C23.48175489 20.65450326 22.14224306 20.42008597 18 21 C14.57524406 23.73980475 12.75915938 25.70849658 12 30 C11.8891493 31.58712459 11.82461044 33.1778453 11.79467773 34.76855469 C11.77473251 35.70922791 11.75478729 36.64990112 11.73423767 37.61907959 C11.71752518 38.62650208 11.70081268 39.63392456 11.68359375 40.671875 C11.6524221 42.22820648 11.6524221 42.22820648 11.62062073 43.815979 C11.55528592 47.12725258 11.49631483 50.43860482 11.4375 53.75 C11.39429951 55.99610185 11.35068473 58.24219578 11.30664062 60.48828125 C11.1988421 65.99210807 11.09964877 71.49599543 11 77 C2.75 77 -5.5 77 -14 77 C-14.03738281 73.44863281 -14.07476563 69.89726562 -14.11328125 66.23828125 C-14.15950108 62.79624291 -14.21073322 59.35431311 -14.26245117 55.91235352 C-14.29569167 53.52147017 -14.32372629 51.13050852 -14.34643555 48.73950195 C-14.37999683 45.30125581 -14.43231524 41.86372671 -14.48828125 38.42578125 C-14.49467117 37.35789871 -14.5010611 36.29001617 -14.50764465 35.18977356 C-14.55588001 28.07065831 -14.55588001 28.07065831 -18 22 C-20.88861709 20.55569145 -22.79647701 20.62311494 -26 21 C-29.93492777 24.06049938 -31.30550312 26.15548346 -32 31 C-32.10746952 32.59460978 -32.17450819 34.19235312 -32.20532227 35.7902832 C-32.22526749 36.71086014 -32.24521271 37.63143707 -32.26576233 38.57991028 C-32.29083107 40.05049141 -32.29083107 40.05049141 -32.31640625 41.55078125 C-32.33718735 42.56472458 -32.35796844 43.57866791 -32.37937927 44.62333679 C-32.44461114 47.85299085 -32.50363702 51.08272421 -32.5625 54.3125 C-32.60571029 56.50586748 -32.64932538 58.69922703 -32.69335938 60.89257812 C-32.80102499 66.26163874 -32.90029467 71.63076206 -33 77 C-41.25 77 -49.5 77 -58 77 C-58 51.26 -58 25.52 -58 -1 C-49.75 -1 -41.5 -1 -33 -1 C-32.67 0.65 -32.34 2.3 -32 4 C-31.360625 3.401875 -30.72125 2.80375 -30.0625 2.1875 C-20.99521373 -4.28913305 -9.96685187 -4.90586289 0 0 Z " fill="#111111" transform="translate(834,84)"/>
<path d="M0 0 C4.5421273 3.79128585 4.5421273 3.79128585 5.9140625 6.53515625 C6.29175781 6.07625 6.66945313 5.61734375 7.05859375 5.14453125 C12.41560162 -0.82721523 18.32807088 -3.64964099 26.26953125 -4.80859375 C33.15118819 -5.10091192 39.73706128 -3.22984443 45.7265625 0.09765625 C51.43879408 6.4627143 54.0455993 13.97593372 54.02758789 22.40527344 C54.02747459 24.1766568 54.02747459 24.1766568 54.02735901 25.98382568 C54.02219772 27.25373352 54.01703644 28.52364136 54.01171875 29.83203125 C54.0103038 31.13593811 54.00888885 32.43984497 54.00743103 33.78326416 C54.00362117 37.2421868 53.99380401 40.70106716 53.98272705 44.15997314 C53.97247996 47.69258044 53.96792635 51.22519461 53.96289062 54.7578125 C53.95218032 61.68361283 53.93459596 68.60937815 53.9140625 75.53515625 C45.6640625 75.53515625 37.4140625 75.53515625 28.9140625 75.53515625 C28.86507812 72.22355469 28.81609375 68.91195312 28.765625 65.5 C28.71155842 62.27965927 28.65427319 59.05939069 28.59667969 55.83911133 C28.55848367 53.60739555 28.52361469 51.37562018 28.4921875 49.14379883 C28.44633321 45.92898311 28.38837213 42.71457433 28.328125 39.5 C28.31657379 38.50806137 28.30502258 37.51612274 28.29312134 36.49412537 C28.18063874 31.17024361 27.88194762 26.51525393 25.9140625 21.53515625 C22.42470779 19.20891977 21.00923652 19.28443131 16.9140625 19.53515625 C14.64839907 19.97457148 14.64839907 19.97457148 12.9140625 20.53515625 C10.79272776 26.63492402 10.57321613 32.29280547 10.5 38.71875 C10.48063385 39.77425552 10.4612677 40.82976105 10.4413147 41.91725159 C10.38181697 45.26897245 10.33525285 48.62072822 10.2890625 51.97265625 C10.2508553 54.2532697 10.21180199 56.53386914 10.171875 58.81445312 C10.07455684 64.38794551 9.99475071 69.96129933 9.9140625 75.53515625 C1.6640625 75.53515625 -6.5859375 75.53515625 -15.0859375 75.53515625 C-15.12332031 72.15136719 -15.16070312 68.76757812 -15.19921875 65.28125 C-15.24547603 61.99139063 -15.29669452 58.70164314 -15.34838867 55.41186523 C-15.38157117 53.13166139 -15.40962374 50.85137672 -15.43237305 48.57104492 C-15.46604132 45.28659743 -15.51836476 42.00288611 -15.57421875 38.71875 C-15.58060867 37.70493759 -15.5869986 36.69112518 -15.59358215 35.64659119 C-15.71245713 29.87844828 -16.26126597 25.6126386 -19.0859375 20.53515625 C-22.87953075 18.63835962 -27.12989358 19.31791197 -31.0859375 20.53515625 C-33.20727224 26.63492402 -33.42678387 32.29280547 -33.5 38.71875 C-33.51936615 39.77425552 -33.5387323 40.82976105 -33.5586853 41.91725159 C-33.61818303 45.26897245 -33.66474715 48.62072822 -33.7109375 51.97265625 C-33.7491447 54.2532697 -33.78819801 56.53386914 -33.828125 58.81445312 C-33.92385992 64.38789595 -34.00899367 69.96142402 -34.0859375 75.53515625 C-42.0859375 76.53515625 -42.0859375 76.53515625 -59.0859375 75.53515625 C-59.0859375 49.79515625 -59.0859375 24.05515625 -59.0859375 -2.46484375 C-51.1659375 -2.46484375 -43.2459375 -2.46484375 -35.0859375 -2.46484375 C-34.7559375 -0.48484375 -34.4259375 1.49515625 -34.0859375 3.53515625 C-33.66183594 3.12523438 -33.23773438 2.7153125 -32.80078125 2.29296875 C-23.68049834 -6.08566478 -10.36599689 -7.2794922 0 0 Z " fill="#111111" transform="translate(508.0859375,85.46484375)"/>
<path d="M0 0 C0.78375 0.763125 1.5675 1.52625 2.375 2.3125 C2.705 0.3325 3.035 -1.6475 3.375 -3.6875 C11.625 -3.6875 19.875 -3.6875 28.375 -3.6875 C28.43107422 1.89091797 28.43107422 1.89091797 28.48828125 7.58203125 C28.53446686 11.17624867 28.58571141 14.77036071 28.63745117 18.36450195 C28.67074471 20.86606465 28.69876268 23.36770327 28.72143555 25.86938477 C28.7548996 29.46143002 28.80721243 33.05277666 28.86328125 36.64453125 C28.86967117 37.76648392 28.8760611 38.88843658 28.88264465 40.04438782 C28.90243881 41.08524033 28.92223297 42.12609283 28.94262695 43.19848633 C28.95373001 44.11559891 28.96483307 45.03271149 28.97627258 45.97761536 C29.20734543 48.35719306 29.20734543 48.35719306 30.67155457 50.1204071 C33.41611194 52.04108345 36.13800816 51.49572595 39.375 51.3125 C45.15054439 66.27641046 45.15054439 66.27641046 43.375 71.3125 C36.57434084 75.55076794 28.73686183 76.31171552 21.02734375 74.875 C15.18954342 73.31565433 11.55016183 70.47992023 8.375 65.3125 C8.375 64.6525 8.375 63.9925 8.375 63.3125 C7.715 63.3125 7.055 63.3125 6.375 63.3125 C6.13007812 63.90804687 5.88515625 64.50359375 5.6328125 65.1171875 C2.84870972 69.97639795 -3.15307554 73.13651588 -8.4375 74.6875 C-19.40255891 76.80203422 -29.83476082 75.47018828 -39.375 69.625 C-47.02177906 64.14952857 -51.78864184 56.14715753 -54.21484375 47.1171875 C-56.43313556 31.94829684 -54.85243128 17.86180653 -45.625 5.3125 C-34.88330281 -6.69141101 -13.00290224 -10.74418213 0 0 Z M-25.875 22.625 C-29.20102014 27.73281665 -30.14757506 32.2506293 -29.625 38.3125 C-28.21391929 44.52599826 -25.80496397 47.67550402 -20.625 51.3125 C-16.91295513 53.16852244 -12.6762695 52.76125601 -8.625 52.3125 C-4.20015122 50.10007561 -1.43023343 47.36450384 1.375 43.3125 C3.25394454 37.67566637 3.12220942 31.55412826 1.25 25.9375 C-1.65833211 21.86583505 -4.78534238 18.92571921 -9.625 17.3125 C-16.44105471 16.86554559 -20.88926298 17.50077028 -25.875 22.625 Z " fill="#111111" transform="translate(628.625,86.6875)"/>
<path d="M0 0 C1.38520564 0.91371545 2.7199055 1.90343117 4.0390625 2.91015625 C4.3690625 1.26015625 4.6990625 -0.38984375 5.0390625 -2.08984375 C13.2890625 -2.08984375 21.5390625 -2.08984375 30.0390625 -2.08984375 C30.09513672 3.48857422 30.09513672 3.48857422 30.15234375 9.1796875 C30.19852936 12.77390492 30.24977391 16.36801696 30.30151367 19.9621582 C30.33480721 22.4637209 30.36282518 24.96535952 30.38549805 27.46704102 C30.4189621 31.05908627 30.47127493 34.65043291 30.52734375 38.2421875 C30.53373367 39.36414017 30.5401236 40.48609283 30.54670715 41.64204407 C30.56650131 42.68289658 30.58629547 43.72374908 30.60668945 44.79614258 C30.61779251 45.71325516 30.62889557 46.63036774 30.64033508 47.57527161 C31.11262222 50.34091035 31.81701478 51.24613586 34.0390625 52.91015625 C36.09269856 53.27081935 36.09269856 53.27081935 38.2265625 53.09765625 C39.4846875 53.03578125 40.7428125 52.97390625 42.0390625 52.91015625 C42.71399591 55.1368339 43.37869294 57.36661602 44.0390625 59.59765625 C44.4103125 60.83902344 44.7815625 62.08039063 45.1640625 63.359375 C45.91609707 66.41115815 46.22941149 68.79913987 46.0390625 71.91015625 C44.79170683 72.56108215 43.54104418 73.20567294 42.2890625 73.84765625 C41.24492188 74.38712891 41.24492188 74.38712891 40.1796875 74.9375 C34.05259119 77.72152734 27.21019754 77.88288351 20.8515625 75.72265625 C15.77700113 73.58546573 12.11069829 70.51760994 9.0390625 65.91015625 C8.54277344 66.38066406 8.04648437 66.85117188 7.53515625 67.3359375 C-0.76500042 74.94310196 -8.45577756 77.34144388 -19.70703125 77.17578125 C-30.44263531 76.29940541 -37.82052155 71.81186655 -44.9609375 63.91015625 C-52.92338293 54.22506638 -53.93432533 42.05422791 -53.17236328 29.97753906 C-52.09065431 19.40027401 -47.55819094 9.50338442 -39.3984375 2.59765625 C-27.83884487 -5.33713104 -12.37210668 -6.876131 0 0 Z M-24.24609375 24.48828125 C-27.66143388 29.92344618 -28.430799 35.2374414 -27.2734375 41.53515625 C-25.93007641 46.76625773 -23.77821718 49.68454902 -19.2734375 52.72265625 C-14.40947008 54.46634268 -9.9396089 54.89136565 -4.96875 53.25390625 C-1.24085469 51.39795837 1.47973946 48.96630233 3.37890625 45.16796875 C5.21164073 38.89979993 5.14092331 32.23630684 2.3515625 26.34765625 C-1.74163541 22.0332044 -5.08632046 18.79590104 -11.1484375 18.59765625 C-16.6578811 18.68623251 -20.70860635 20.14437575 -24.24609375 24.48828125 Z " fill="#111111" transform="translate(953.9609375,85.08984375)"/>
<path d="M0 0 C24.37449358 12.45371133 40.7883929 35.456799 49.36132812 60.95703125 C53.71040947 74.86877158 53.71040947 74.86877158 52 80 C51.6596875 79.50371094 51.319375 79.00742188 50.96875 78.49609375 C45.36458233 70.64131619 38.65031277 63.43782191 29 61 C18.93233347 59.85514226 10.70497622 60.92993401 2.41015625 66.84765625 C-3.45775895 71.70964313 -7.16329836 76.98306349 -10.72265625 83.69140625 C-11.14417969 84.45324219 -11.56570312 85.21507813 -12 86 C-12.33 86 -12.66 86 -13 86 C-13.18175781 84.78183594 -13.36351562 83.56367187 -13.55078125 82.30859375 C-13.80420257 80.68482008 -14.0581361 79.06112629 -14.3125 77.4375 C-14.48942383 76.23770508 -14.48942383 76.23770508 -14.66992188 75.01367188 C-15.48481899 69.89444639 -16.77615968 65.68300766 -19 61 C-19.6496875 59.4221875 -19.6496875 59.4221875 -20.3125 57.8125 C-27.00752783 42.38632763 -36.01414417 29.79680448 -48 18 C-45.68152496 11.04457489 -36.36880225 6.60260946 -30.08203125 3.4453125 C-12.63862901 -4.97347131 -12.63862901 -4.97347131 0 0 Z " fill="#A24388" transform="translate(251,9)"/>
<path d="M0 0 C4.76631493 2.97321808 9.05302721 6.30085012 13.25 10.02734375 C13.85070312 10.55714844 14.45140625 11.08695313 15.0703125 11.6328125 C30.35121817 26.02529342 41.65578927 46.37513757 46.57421875 66.65234375 C47.17121205 69.04007776 47.17121205 69.04007776 48.32421875 71.13671875 C49.62302691 73.7891371 49.38212748 76.12053918 49.25 79.02734375 C46.86654659 76.77947601 45.02774943 74.37593535 43.125 71.71484375 C39.44678438 66.94247539 35.46768471 63.96582322 30.25 61.02734375 C29.21875 60.40859375 28.1875 59.78984375 27.125 59.15234375 C19.76149319 56.28589704 10.04909743 56.98085174 2.75 59.65234375 C-5.98246169 63.81616654 -10.15791902 69.70089806 -14.75 78.02734375 C-15.7163408 79.71374917 -16.70858459 81.38623689 -17.75 83.02734375 C-18.08 83.02734375 -18.41 83.02734375 -18.75 83.02734375 C-18.92015625 81.95097656 -19.0903125 80.87460938 -19.265625 79.765625 C-23.35258634 54.73982721 -32.73947453 32.41995216 -51.75 15.02734375 C-39.61094835 -1.62049851 -18.14275225 -10.26829381 0 0 Z " fill="#A24488" transform="translate(119.75,11.97265625)"/>
</svg>
